<svg width="42" height="16" viewBox="0 0 42 16" fill="none" xmlns="http://www.w3.org/2000/svg">
<path d="M9.39453 10.8398C9.2513 10.8659 9.11458 10.8789 8.98438 10.8789C8.85417 10.8659 8.71094 10.8854 8.55469 10.9375C8.35938 10.8464 8.2487 10.8268 8.22266 10.8789C8.20964 10.931 8.16406 10.9505 8.08594 10.9375C8.11198 10.8724 8.09896 10.8529 8.04688 10.8789C7.99479 10.9049 7.9362 10.9115 7.87109 10.8984C7.75391 10.8333 7.63672 10.8008 7.51953 10.8008C7.41536 10.7878 7.35026 10.7812 7.32422 10.7812C7.24609 10.7943 7.19401 10.8203 7.16797 10.8594C7.15495 10.8984 7.14844 10.944 7.14844 10.9961C7.16146 11.0352 7.16797 11.0872 7.16797 11.1523C7.18099 11.2044 7.16797 11.263 7.12891 11.3281C7.15495 11.6276 7.16146 11.862 7.14844 12.0312C7.13542 12.2005 7.14844 12.4219 7.1875 12.6953C7.16146 12.8516 7.1224 12.9232 7.07031 12.9102C7.03125 12.8971 7.00521 12.9102 6.99219 12.9492C6.99219 13.0143 6.97917 13.0664 6.95312 13.1055C6.9401 13.1445 6.96615 13.1771 7.03125 13.2031C7.00521 13.3594 6.9987 13.4831 7.01172 13.5742C7.03776 13.6654 7.02474 13.7565 6.97266 13.8477C7.0638 14.0039 7.1875 14.1341 7.34375 14.2383C7.5 14.3294 7.67578 14.401 7.87109 14.4531C8.07943 14.4922 8.29427 14.5182 8.51562 14.5312C8.75 14.5312 8.98438 14.5182 9.21875 14.4922C9.25781 14.5182 9.27083 14.5703 9.25781 14.6484C9.24479 14.7266 9.25781 14.7786 9.29688 14.8047C9.27083 14.8438 9.2513 14.8893 9.23828 14.9414C9.22526 14.9805 9.1862 15.013 9.12109 15.0391C9.00391 15.013 8.84766 14.987 8.65234 14.9609C8.45703 14.9349 8.30729 14.9805 8.20312 15.0977C8.07292 15.0065 7.92318 14.974 7.75391 15C7.59766 15.013 7.44141 15.0326 7.28516 15.0586C7.05078 15.0456 6.84245 15.026 6.66016 15C6.47786 14.9609 6.28906 14.9284 6.09375 14.9023C6.02865 14.9544 5.97005 14.987 5.91797 15C5.87891 15.026 5.84635 15.013 5.82031 14.9609C5.76823 15.026 5.72266 15.0651 5.68359 15.0781C5.64453 15.0911 5.61849 15.0521 5.60547 14.9609C5.34505 14.9219 5.10417 14.8958 4.88281 14.8828C4.67448 14.8568 4.4401 14.8177 4.17969 14.7656C4.1276 14.8307 4.04948 14.8503 3.94531 14.8242C3.85417 14.7982 3.79557 14.8307 3.76953 14.9219C3.52214 14.8958 3.26172 14.8958 2.98828 14.9219C2.71484 14.9349 2.5 14.9935 2.34375 15.0977C2.26562 15.0716 2.20052 15.0651 2.14844 15.0781C2.10938 15.0911 2.03776 15.0911 1.93359 15.0781C1.90755 15.013 1.875 14.9674 1.83594 14.9414C1.8099 14.9023 1.78385 14.8438 1.75781 14.7656C2.03125 14.6875 2.27214 14.6289 2.48047 14.5898C2.6888 14.5378 2.89714 14.4857 3.10547 14.4336C3.18359 14.4076 3.27474 14.401 3.37891 14.4141C3.48307 14.4141 3.58073 14.401 3.67188 14.375C3.80208 14.349 3.89974 14.3099 3.96484 14.2578C4.02995 14.1927 4.11458 14.1341 4.21875 14.082C4.19271 13.8607 4.19922 13.7174 4.23828 13.6523C4.29036 13.5742 4.32943 13.4896 4.35547 13.3984C4.19922 13.3984 4.08203 13.4766 4.00391 13.6328C3.97786 13.5938 3.95182 13.5742 3.92578 13.5742C3.91276 13.5742 3.88672 13.5807 3.84766 13.5938C3.82161 13.5938 3.79557 13.5938 3.76953 13.5938C3.74349 13.5938 3.71094 13.5807 3.67188 13.5547C3.72396 13.5026 3.76953 13.457 3.80859 13.418C3.86068 13.3659 3.91927 13.3268 3.98438 13.3008C4.02344 13.2747 4.05599 13.2422 4.08203 13.2031C4.12109 13.1641 4.16667 13.151 4.21875 13.1641C4.29688 12.9557 4.35547 12.819 4.39453 12.7539C4.43359 12.6758 4.45312 12.5977 4.45312 12.5195C4.38802 12.4154 4.36849 12.3307 4.39453 12.2656C4.42057 12.2005 4.42057 12.1354 4.39453 12.0703C4.42057 11.9661 4.43359 11.8685 4.43359 11.7773C4.36849 11.7773 4.31641 11.7904 4.27734 11.8164C4.23828 11.8424 4.19271 11.862 4.14062 11.875C4.1276 11.7448 4.08203 11.6797 4.00391 11.6797C3.99089 11.5755 4.04297 11.5234 4.16016 11.5234C4.14714 11.3281 4.16667 11.2435 4.21875 11.2695C4.28385 11.2956 4.3099 11.2826 4.29688 11.2305C4.07552 11.2044 3.82812 11.1719 3.55469 11.1328C3.28125 11.0938 3.03385 11.0612 2.8125 11.0352C2.72135 11.1133 2.63021 11.1198 2.53906 11.0547C2.46094 10.9896 2.38281 10.9831 2.30469 11.0352C2.17448 11.0352 2.03776 11.0352 1.89453 11.0352C1.76432 11.0221 1.66667 10.9896 1.60156 10.9375C1.52344 11.0026 1.46484 11.0286 1.42578 11.0156C1.38672 11.0026 1.34115 10.9896 1.28906 10.9766C1.17188 10.9505 1.05469 10.957 0.9375 10.9961C0.820312 11.0221 0.709635 11.0482 0.605469 11.0742C0.514323 11.0872 0.429688 11.0872 0.351562 11.0742C0.286458 11.0482 0.234375 10.9635 0.195312 10.8203C0.286458 10.7161 0.338542 10.6055 0.351562 10.4883C0.364583 10.3711 0.397135 10.2539 0.449219 10.1367C0.47526 10.0586 0.520833 9.99349 0.585938 9.94141C0.651042 9.8763 0.703125 9.8112 0.742188 9.74609C0.807292 9.61589 0.872396 9.47266 0.9375 9.31641C1.01562 9.16016 1.08724 9.02344 1.15234 8.90625C1.32161 8.65885 1.45182 8.44401 1.54297 8.26172C1.63411 8.07943 1.72526 7.89714 1.81641 7.71484C1.90755 7.53255 1.9987 7.35677 2.08984 7.1875C2.19401 7.00521 2.31771 6.84245 2.46094 6.69922C2.46094 6.63411 2.48047 6.58854 2.51953 6.5625C2.57161 6.52344 2.59115 6.45833 2.57812 6.36719C2.64323 6.32812 2.69531 6.27604 2.73438 6.21094C2.77344 6.14583 2.81901 6.08724 2.87109 6.03516C2.9362 5.8138 3.04036 5.63802 3.18359 5.50781C3.32682 5.3776 3.45703 5.23438 3.57422 5.07812C3.5612 4.96094 3.58073 4.88281 3.63281 4.84375C3.69792 4.80469 3.74349 4.74609 3.76953 4.66797C3.96484 4.53776 4.10807 4.36849 4.19922 4.16016C4.30339 3.9388 4.42708 3.73698 4.57031 3.55469C4.7526 3.41146 4.88281 3.29427 4.96094 3.20312C5.05208 3.09896 5.14323 2.99479 5.23438 2.89062C5.23438 2.78646 5.27344 2.70833 5.35156 2.65625C5.42969 2.59115 5.5013 2.52604 5.56641 2.46094C5.60547 2.39583 5.63802 2.33073 5.66406 2.26562C5.6901 2.20052 5.72917 2.13542 5.78125 2.07031C5.80729 2.03125 5.83984 1.9987 5.87891 1.97266C5.93099 1.93359 5.97005 1.89453 5.99609 1.85547C6.07422 1.69922 6.14583 1.57552 6.21094 1.48438C6.28906 1.39323 6.34766 1.29557 6.38672 1.19141C6.41276 1.11328 6.42578 1.02865 6.42578 0.9375C6.4388 0.833333 6.45182 0.742188 6.46484 0.664062C6.47786 0.572917 6.4974 0.488281 6.52344 0.410156C6.54948 0.332031 6.60156 0.273438 6.67969 0.234375C6.78385 0.351562 6.84896 0.46224 6.875 0.566406C6.91406 0.670573 6.9401 0.78776 6.95312 0.917969C7.13542 0.826823 7.2526 0.813802 7.30469 0.878906C7.36979 0.94401 7.38932 1.02865 7.36328 1.13281C7.25911 1.1849 7.19401 1.24349 7.16797 1.30859C7.14193 1.36068 7.14844 1.41927 7.1875 1.48438C7.08333 1.60156 7.03776 1.6862 7.05078 1.73828C7.0638 1.77734 7.05729 1.82943 7.03125 1.89453C7.10938 2.05078 7.12891 2.22005 7.08984 2.40234C7.0638 2.57161 7.07682 2.76042 7.12891 2.96875C7.12891 3.28125 7.12891 3.55469 7.12891 3.78906C7.14193 4.02344 7.13542 4.2513 7.10938 4.47266C7.14844 4.52474 7.15495 4.58984 7.12891 4.66797C7.10286 4.73307 7.11589 4.79818 7.16797 4.86328C7.23307 4.99349 7.28516 5.07161 7.32422 5.09766C7.36328 5.1237 7.39583 5.15625 7.42188 5.19531C7.33073 5.2474 7.27214 5.31901 7.24609 5.41016C7.22005 5.48828 7.15495 5.54036 7.05078 5.56641C7.0638 5.7487 7.05729 5.89193 7.03125 5.99609C7.01823 6.10026 7.01172 6.24349 7.01172 6.42578C7.02474 6.56901 7.03776 6.70573 7.05078 6.83594C7.0638 6.96615 7.10286 7.08333 7.16797 7.1875C7.08984 7.31771 7.03125 7.41536 6.99219 7.48047C6.96615 7.53255 6.98568 7.59115 7.05078 7.65625C7.12891 7.77344 7.14193 7.84505 7.08984 7.87109C7.03776 7.88411 7.00521 7.91016 6.99219 7.94922C6.95312 8.15755 6.97266 8.28125 7.05078 8.32031C7.14193 8.35938 7.20052 8.43099 7.22656 8.53516C7.1875 8.58724 7.14844 8.63932 7.10938 8.69141C7.07031 8.74349 7.03776 8.80208 7.01172 8.86719C7.0638 8.89323 7.09635 8.93229 7.10938 8.98438C7.13542 9.03646 7.1875 9.05599 7.26562 9.04297C7.29167 9.17318 7.27865 9.26432 7.22656 9.31641C7.17448 9.36849 7.1224 9.42708 7.07031 9.49219C7.1224 9.66146 7.18099 9.82422 7.24609 9.98047C7.40234 10.0195 7.5651 10.026 7.73438 10C7.91667 9.96094 8.07292 9.92839 8.20312 9.90234C8.38542 9.95443 8.55469 9.96094 8.71094 9.92188C8.86719 9.88281 9.02995 9.88281 9.19922 9.92188C9.26432 10.0651 9.31641 10.2083 9.35547 10.3516C9.39453 10.4948 9.40755 10.6576 9.39453 10.8398ZM6.75781 1.26953C6.66667 1.33464 6.59505 1.39974 6.54297 1.46484C6.49089 1.52995 6.48438 1.59505 6.52344 1.66016C6.5625 1.59505 6.60807 1.54297 6.66016 1.50391C6.72526 1.45182 6.75781 1.3737 6.75781 1.26953ZM6.85547 2.42188C6.76432 2.42188 6.69271 2.44141 6.64062 2.48047C6.60156 2.51953 6.5625 2.57161 6.52344 2.63672C6.38021 2.67578 6.26953 2.75391 6.19141 2.87109C6.11328 2.97526 6.0026 3.04688 5.85938 3.08594C5.8724 3.17708 5.8138 3.22266 5.68359 3.22266C5.5013 3.39193 5.31901 3.5612 5.13672 3.73047C4.95443 3.88672 4.80469 4.07552 4.6875 4.29688C4.84375 4.23177 4.96094 4.14714 5.03906 4.04297C5.15625 4.06901 5.23438 4.03646 5.27344 3.94531C5.3125 3.84115 5.38411 3.76953 5.48828 3.73047C5.57943 3.57422 5.66406 3.48958 5.74219 3.47656C5.82031 3.45052 5.8724 3.41146 5.89844 3.35938C5.96354 3.32031 6.02865 3.26823 6.09375 3.20312C6.17188 3.13802 6.26953 3.09896 6.38672 3.08594C6.47786 2.98177 6.58854 2.88411 6.71875 2.79297C6.86198 2.6888 6.90755 2.5651 6.85547 2.42188ZM6.95312 3.32031C6.92708 3.25521 6.90755 3.20312 6.89453 3.16406C6.89453 3.11198 6.88802 3.0599 6.875 3.00781C6.83594 3.02083 6.79688 3.04688 6.75781 3.08594C6.73177 3.11198 6.6862 3.11849 6.62109 3.10547C6.45182 3.32682 6.24349 3.50911 5.99609 3.65234C5.76172 3.78255 5.57292 3.96484 5.42969 4.19922C5.36458 4.1862 5.31901 4.16667 5.29297 4.14062C5.27995 4.11458 5.24089 4.10156 5.17578 4.10156C5.14974 4.20573 5.13672 4.32292 5.13672 4.45312C5.05859 4.45312 5.00651 4.48568 4.98047 4.55078C4.96745 4.60286 4.92839 4.63542 4.86328 4.64844C4.86328 4.71354 4.8112 4.77214 4.70703 4.82422C4.60286 4.8763 4.55078 4.95443 4.55078 5.05859C4.62891 5.05859 4.66146 5.09115 4.64844 5.15625C4.63542 5.22135 4.64844 5.27344 4.6875 5.3125C4.77865 5.28646 4.84375 5.22786 4.88281 5.13672C4.92188 5.04557 4.98047 4.98698 5.05859 4.96094C5.08464 4.96094 5.1237 4.97396 5.17578 5C5.22786 5.02604 5.26042 5.02604 5.27344 5L5.48828 5.07812C5.54036 5.01302 5.59896 4.96745 5.66406 4.94141C5.74219 4.90234 5.79427 4.84375 5.82031 4.76562C5.92448 4.77865 5.99609 4.75911 6.03516 4.70703C6.08724 4.64193 6.14583 4.57682 6.21094 4.51172C6.28906 4.51172 6.3151 4.54427 6.28906 4.60938C6.27604 4.66146 6.25651 4.70052 6.23047 4.72656C6.13932 4.76562 6.08073 4.79818 6.05469 4.82422C6.04167 4.83724 6.02865 4.85677 6.01562 4.88281C5.9375 4.86979 5.87891 4.88281 5.83984 4.92188C5.8138 4.96094 5.76172 4.97396 5.68359 4.96094C5.76172 5.0651 5.78776 5.1237 5.76172 5.13672C5.7487 5.14974 5.75521 5.16927 5.78125 5.19531C5.91146 5.14323 6.0026 5.11719 6.05469 5.11719C6.10677 5.05208 6.17188 4.98698 6.25 4.92188C6.32812 4.85677 6.41276 4.84375 6.50391 4.88281C6.62109 4.80469 6.6862 4.77214 6.69922 4.78516C6.72526 4.79818 6.7513 4.81771 6.77734 4.84375C6.76432 4.98698 6.77083 5.0651 6.79688 5.07812C6.82292 4.7526 6.85547 4.44661 6.89453 4.16016C6.94661 3.8737 6.9401 3.60677 6.875 3.35938L6.95312 3.32031ZM6.66016 5.11719C6.59505 5.14323 6.52995 5.17578 6.46484 5.21484C6.41276 5.25391 6.35417 5.28646 6.28906 5.3125C6.38021 5.35156 6.4388 5.36458 6.46484 5.35156C6.50391 5.32552 6.54297 5.30599 6.58203 5.29297L6.66016 5.11719ZM6.67969 5.52734C6.61458 5.55339 6.56901 5.56641 6.54297 5.56641C6.51693 5.56641 6.47135 5.55339 6.40625 5.52734C6.38021 5.57943 6.32161 5.59896 6.23047 5.58594C6.13932 5.57292 6.10026 5.61198 6.11328 5.70312C6.19141 5.72917 6.25651 5.72266 6.30859 5.68359C6.36068 5.63151 6.41927 5.59896 6.48438 5.58594L6.67969 5.52734ZM6.79688 6.23047C6.79688 6.15234 6.79036 6.09375 6.77734 6.05469C6.76432 6.01562 6.77083 5.96354 6.79688 5.89844C6.70573 5.97656 6.61458 6.02865 6.52344 6.05469C6.44531 6.06771 6.38021 6.10026 6.32812 6.15234C6.41927 6.1263 6.4974 6.10026 6.5625 6.07422C6.6276 6.03516 6.67318 6.04167 6.69922 6.09375L6.79688 6.23047ZM4.98047 4.39453C4.82422 4.38151 4.71354 4.42708 4.64844 4.53125C4.6875 4.59635 4.73307 4.60938 4.78516 4.57031C4.83724 4.53125 4.8763 4.52474 4.90234 4.55078L4.98047 4.39453ZM5.58594 5.68359C5.48177 5.60547 5.41016 5.5599 5.37109 5.54688L5.58594 5.68359ZM5.68359 5.23438C5.63151 5.22135 5.57943 5.20182 5.52734 5.17578C5.48828 5.14974 5.44271 5.16276 5.39062 5.21484C5.36458 5.17578 5.33203 5.14974 5.29297 5.13672C5.26693 5.1237 5.2474 5.09766 5.23438 5.05859C5.15625 5.09766 5.1237 5.15625 5.13672 5.23438C5.16276 5.3125 5.19531 5.35156 5.23438 5.35156C5.18229 5.40365 5.14974 5.44271 5.13672 5.46875C5.1237 5.48177 5.09766 5.48828 5.05859 5.48828C4.99349 5.39714 4.92188 5.36458 4.84375 5.39062C4.77865 5.40365 4.71354 5.3776 4.64844 5.3125C4.58333 5.33854 4.55078 5.39062 4.55078 5.46875C4.55078 5.54688 4.54427 5.61849 4.53125 5.68359C4.59635 5.69661 4.63542 5.69661 4.64844 5.68359C4.67448 5.65755 4.70703 5.64453 4.74609 5.64453C4.74609 5.54036 4.78516 5.48828 4.86328 5.48828C4.95443 5.47526 5.01302 5.48828 5.03906 5.52734C5.01302 5.55339 4.98047 5.56641 4.94141 5.56641C4.90234 5.55339 4.86328 5.54688 4.82422 5.54688C4.82422 5.59896 4.83073 5.63151 4.84375 5.64453C4.86979 5.64453 4.89583 5.63802 4.92188 5.625C4.96094 5.61198 4.99349 5.60547 5.01953 5.60547C5.04557 5.60547 5.05859 5.625 5.05859 5.66406C5.14974 5.59896 5.20833 5.5599 5.23438 5.54688C5.27344 5.52083 5.29297 5.49479 5.29297 5.46875C5.34505 5.46875 5.39714 5.44922 5.44922 5.41016C5.5013 5.37109 5.56641 5.36458 5.64453 5.39062L5.68359 5.23438ZM5.05859 5.39062C5.14974 5.33854 5.15625 5.27344 5.07812 5.19531C5.01302 5.10417 4.94792 5.10417 4.88281 5.19531C5.01302 5.27344 5.07161 5.31901 5.05859 5.33203C5.05859 5.34505 5.05859 5.36458 5.05859 5.39062ZM6.30859 6.64062C6.30859 6.58854 6.27604 6.54948 6.21094 6.52344C6.15885 6.4974 6.15885 6.45182 6.21094 6.38672C6.13281 6.52995 6.11979 6.60156 6.17188 6.60156C6.23698 6.58854 6.28255 6.60156 6.30859 6.64062ZM5.87891 6.67969C5.8138 6.57552 5.76172 6.51693 5.72266 6.50391C5.69661 6.49089 5.68359 6.4974 5.68359 6.52344C5.77474 6.57552 5.82031 6.62109 5.82031 6.66016C5.82031 6.6862 5.83984 6.69271 5.87891 6.67969ZM6.36719 5.83984C6.30208 5.80078 6.23047 5.77474 6.15234 5.76172C6.08724 5.7487 6.02865 5.72917 5.97656 5.70312C5.88542 5.78125 5.88542 5.8138 5.97656 5.80078C6.08073 5.77474 6.13932 5.79427 6.15234 5.85938C6.03516 5.85938 5.95703 5.85286 5.91797 5.83984C5.76172 5.86589 5.63802 5.8724 5.54688 5.85938C5.46875 5.84635 5.41667 5.8724 5.39062 5.9375C5.42969 6.01562 5.44922 6.08073 5.44922 6.13281C5.44922 6.17188 5.41667 6.1849 5.35156 6.17188C5.35156 6.27604 5.39062 6.30859 5.46875 6.26953C5.5599 6.21745 5.61198 6.19792 5.625 6.21094C5.58594 6.28906 5.53385 6.34766 5.46875 6.38672C5.41667 6.36068 5.37109 6.35417 5.33203 6.36719C5.29297 6.38021 5.25391 6.39974 5.21484 6.42578C5.1237 6.56901 5.03255 6.6862 4.94141 6.77734C4.85026 6.85547 4.74609 6.92057 4.62891 6.97266C4.65495 7.0638 4.65495 7.14844 4.62891 7.22656C4.60286 7.29167 4.62891 7.33073 4.70703 7.34375C4.70703 7.26562 4.72005 7.21354 4.74609 7.1875C4.77214 7.16146 4.80469 7.14844 4.84375 7.14844C4.89583 7.13542 4.94792 7.12891 5 7.12891C5.05208 7.11589 5.09766 7.08984 5.13672 7.05078C5.05859 6.9987 5.03255 6.96615 5.05859 6.95312C5.08464 6.92708 5.11068 6.91406 5.13672 6.91406C5.16276 6.90104 5.18229 6.88802 5.19531 6.875C5.22135 6.86198 5.22135 6.84245 5.19531 6.81641C5.3776 6.71224 5.50781 6.6276 5.58594 6.5625C5.66406 6.4974 5.73568 6.41927 5.80078 6.32812C5.89193 6.32812 5.94401 6.29557 5.95703 6.23047C5.97005 6.16536 6.00911 6.1263 6.07422 6.11328C6.15234 6.03516 6.21094 5.98307 6.25 5.95703C6.30208 5.91797 6.34115 5.87891 6.36719 5.83984ZM5.09766 5.78125C5.09766 5.6901 5.02604 5.65755 4.88281 5.68359C4.79167 5.76172 4.70703 5.77474 4.62891 5.72266C4.64193 5.76172 4.63542 5.80729 4.60938 5.85938C4.58333 5.89844 4.58333 5.9375 4.60938 5.97656C4.7526 5.92448 4.82422 5.88542 4.82422 5.85938C4.82422 5.83333 4.84375 5.82031 4.88281 5.82031C4.96094 5.8724 5.00651 5.88542 5.01953 5.85938C5.03255 5.82031 5.05859 5.79427 5.09766 5.78125ZM5.3125 6.30859C5.28646 6.24349 5.26042 6.19141 5.23438 6.15234C5.22135 6.11328 5.23438 6.06771 5.27344 6.01562C5.15625 6.13281 5.07812 6.21745 5.03906 6.26953C5.01302 6.30859 4.98698 6.29557 4.96094 6.23047C5.10417 6.23047 5.1888 6.24349 5.21484 6.26953C5.24089 6.29557 5.27344 6.30859 5.3125 6.30859ZM6.62109 7.55859C6.49089 7.55859 6.42578 7.60417 6.42578 7.69531C6.54297 7.69531 6.60807 7.64974 6.62109 7.55859ZM4.94141 6.36719C4.83724 6.26302 4.77214 6.24349 4.74609 6.30859C4.73307 6.3737 4.69401 6.41276 4.62891 6.42578C4.65495 6.49089 4.64193 6.53646 4.58984 6.5625C4.55078 6.58854 4.5638 6.61458 4.62891 6.64062C4.64193 6.54948 4.66797 6.52995 4.70703 6.58203C4.75911 6.63411 4.80469 6.65365 4.84375 6.64062C4.81771 6.54948 4.81771 6.49089 4.84375 6.46484C4.86979 6.42578 4.90234 6.39323 4.94141 6.36719ZM9.12109 10.4297C8.99089 10.3646 8.90625 10.3255 8.86719 10.3125C8.84115 10.2995 8.8151 10.293 8.78906 10.293C8.69792 10.332 8.60677 10.3581 8.51562 10.3711C8.4375 10.3711 8.35938 10.3711 8.28125 10.3711C8.20312 10.3581 8.125 10.3581 8.04688 10.3711C7.96875 10.3841 7.89714 10.4167 7.83203 10.4688C8.04036 10.5208 8.2487 10.5404 8.45703 10.5273C8.67839 10.5143 8.89974 10.4818 9.12109 10.4297ZM6.77734 6.46484C6.62109 6.50391 6.53646 6.52995 6.52344 6.54297C6.51042 6.55599 6.49089 6.55599 6.46484 6.54297C6.45182 6.64714 6.41276 6.71875 6.34766 6.75781C6.28255 6.79688 6.21745 6.84245 6.15234 6.89453C6.07422 6.79036 6.04167 6.73828 6.05469 6.73828C6.08073 6.72526 6.09375 6.70573 6.09375 6.67969C6.05469 6.69271 6.01562 6.71875 5.97656 6.75781C5.95052 6.78385 5.90495 6.77734 5.83984 6.73828C5.73568 6.84245 5.65755 6.93359 5.60547 7.01172C5.55339 7.07682 5.45573 7.09635 5.3125 7.07031C5.32552 7.14844 5.3125 7.22005 5.27344 7.28516C5.23438 7.33724 5.16927 7.35026 5.07812 7.32422C5.10417 7.45443 5.07161 7.52604 4.98047 7.53906C4.88932 7.55208 4.84375 7.61068 4.84375 7.71484C4.80469 7.74089 4.75911 7.76693 4.70703 7.79297C4.65495 7.81901 4.60938 7.85156 4.57031 7.89062C4.63542 7.99479 4.66797 8.09245 4.66797 8.18359C4.86328 8.19661 5.02604 8.23568 5.15625 8.30078C5.07812 8.32682 5.00651 8.33984 4.94141 8.33984C4.85026 8.43099 4.79167 8.45703 4.76562 8.41797C4.7526 8.36589 4.71354 8.33984 4.64844 8.33984C4.63542 8.44401 4.61589 8.53516 4.58984 8.61328C4.57682 8.69141 4.59635 8.78255 4.64844 8.88672C4.71354 8.88672 4.76562 8.8737 4.80469 8.84766C4.85677 8.82161 4.91536 8.80208 4.98047 8.78906C4.99349 8.6849 5.03255 8.60026 5.09766 8.53516C5.17578 8.47005 5.26042 8.41797 5.35156 8.37891C5.44271 8.32682 5.52083 8.27474 5.58594 8.22266C5.66406 8.15755 5.70964 8.07943 5.72266 7.98828C5.8138 7.94922 5.86589 7.92969 5.87891 7.92969C5.89193 7.91667 5.88542 7.8776 5.85938 7.8125C5.92448 7.79948 5.96354 7.79297 5.97656 7.79297C6.0026 7.79297 6.04818 7.78646 6.11328 7.77344C6.19141 7.70833 6.24349 7.66276 6.26953 7.63672C6.30859 7.59766 6.32812 7.59115 6.32812 7.61719C6.36719 7.55208 6.39974 7.50651 6.42578 7.48047C6.45182 7.44141 6.50391 7.4349 6.58203 7.46094C6.54297 7.38281 6.52995 7.33073 6.54297 7.30469C6.55599 7.26562 6.57552 7.22656 6.60156 7.1875C6.51042 7.09635 6.47135 7.04427 6.48438 7.03125C6.51042 7.01823 6.51042 6.9987 6.48438 6.97266C6.44531 7.08984 6.41927 7.15495 6.40625 7.16797C6.39323 7.18099 6.36719 7.18099 6.32812 7.16797C6.26302 7.0638 6.26302 6.9987 6.32812 6.97266C6.40625 6.93359 6.47786 6.89453 6.54297 6.85547C6.60807 6.81641 6.66016 6.77083 6.69922 6.71875C6.7513 6.65365 6.77734 6.56901 6.77734 6.46484ZM6.85547 9.6875C6.86849 9.54427 6.83594 9.45964 6.75781 9.43359C6.66667 9.53776 6.60807 9.59635 6.58203 9.60938C6.56901 9.6224 6.56901 9.64193 6.58203 9.66797C6.51693 9.61589 6.49089 9.55078 6.50391 9.47266C6.52995 9.39453 6.58203 9.38151 6.66016 9.43359C6.7513 9.27734 6.77734 9.1862 6.73828 9.16016C6.69922 9.13411 6.69271 9.08854 6.71875 9.02344C6.60156 8.89323 6.53646 8.84766 6.52344 8.88672C6.51042 8.92578 6.48438 8.95833 6.44531 8.98438C6.41927 8.94531 6.3737 8.93229 6.30859 8.94531C6.24349 8.94531 6.21745 8.91276 6.23047 8.84766C6.29557 8.82161 6.34115 8.80859 6.36719 8.80859C6.39323 8.79557 6.4388 8.78906 6.50391 8.78906C6.59505 8.61979 6.66016 8.51562 6.69922 8.47656C6.73828 8.4375 6.75781 8.3724 6.75781 8.28125C6.61458 8.30729 6.54297 8.32682 6.54297 8.33984C6.55599 8.35286 6.54948 8.35938 6.52344 8.35938C6.51042 8.24219 6.54948 8.125 6.64062 8.00781C6.73177 7.89062 6.74479 7.77995 6.67969 7.67578C6.60156 7.76693 6.52344 7.83203 6.44531 7.87109C6.28906 7.96224 6.16536 8.0013 6.07422 7.98828C6.03516 8.13151 6.0026 8.19661 5.97656 8.18359C5.96354 8.15755 5.9375 8.15104 5.89844 8.16406C5.80729 8.21615 5.75521 8.24219 5.74219 8.24219C5.72917 8.24219 5.71615 8.2487 5.70312 8.26172C5.71615 8.32682 5.70312 8.36589 5.66406 8.37891C5.625 8.39193 5.59245 8.41146 5.56641 8.4375C5.59245 8.48958 5.57292 8.52865 5.50781 8.55469C5.44271 8.56771 5.3776 8.57422 5.3125 8.57422C5.27344 8.71745 5.21484 8.78906 5.13672 8.78906C5.07161 8.78906 5.01953 8.80859 4.98047 8.84766C4.96745 8.95182 4.92188 9.0625 4.84375 9.17969C4.76562 9.29688 4.67448 9.35547 4.57031 9.35547C4.59635 9.42057 4.59635 9.49219 4.57031 9.57031C4.55729 9.64844 4.57682 9.72005 4.62891 9.78516C4.5638 9.85026 4.54427 9.95443 4.57031 10.0977C4.64844 10.0716 4.70052 10.0846 4.72656 10.1367C4.7526 10.1758 4.79167 10.2083 4.84375 10.2344C4.84375 10.1172 4.81771 10.0586 4.76562 10.0586C4.72656 10.0456 4.70052 10.0065 4.6875 9.94141C4.83073 9.98047 4.91536 10.0195 4.94141 10.0586C4.95443 10.0065 4.96094 9.95443 4.96094 9.90234C4.96094 9.85026 4.99349 9.83724 5.05859 9.86328C5.00651 9.88932 4.98698 9.92839 5 9.98047C5.02604 10.0195 5.02604 10.0651 5 10.1172C5.0651 10.0651 5.11068 10.0391 5.13672 10.0391C5.16276 10.026 5.1888 10.0065 5.21484 9.98047C5.29297 10.0456 5.33854 10.0521 5.35156 10C5.3776 9.94792 5.41667 9.90885 5.46875 9.88281C5.46875 9.86979 5.50781 9.86328 5.58594 9.86328C5.66406 9.86328 5.72917 9.88281 5.78125 9.92188C5.70312 9.94792 5.61849 9.95443 5.52734 9.94141C5.51432 10.0716 5.45573 10.1497 5.35156 10.1758C5.2474 10.2018 5.14974 10.2279 5.05859 10.2539C5.09766 10.332 5.10417 10.3776 5.07812 10.3906C5.0651 10.3906 5.04557 10.3841 5.01953 10.3711C4.99349 10.3581 4.96094 10.3516 4.92188 10.3516C4.89583 10.3385 4.86328 10.3385 4.82422 10.3516C4.88932 10.4167 4.89583 10.5013 4.84375 10.6055C4.80469 10.7096 4.73958 10.7552 4.64844 10.7422C4.76562 10.8594 4.84375 10.9115 4.88281 10.8984C4.9349 10.8854 5.00651 10.8724 5.09766 10.8594C5.16276 10.7292 5.18229 10.6576 5.15625 10.6445C5.13021 10.6315 5.13672 10.625 5.17578 10.625C5.29297 10.5859 5.36458 10.5599 5.39062 10.5469C5.41667 10.5208 5.41667 10.4883 5.39062 10.4492C5.52083 10.4232 5.60547 10.4036 5.64453 10.3906C5.68359 10.3776 5.70312 10.3451 5.70312 10.293C5.72917 10.319 5.78776 10.293 5.87891 10.2148C5.97005 10.1237 6.04818 10.0391 6.11328 9.96094C6.1263 9.92188 6.16536 9.88932 6.23047 9.86328C6.29557 9.83724 6.34115 9.79167 6.36719 9.72656C6.38021 9.7526 6.41276 9.75911 6.46484 9.74609C6.51693 9.73307 6.55599 9.73958 6.58203 9.76562C6.51693 9.77865 6.45833 9.79818 6.40625 9.82422C6.35417 9.83724 6.34766 9.8763 6.38672 9.94141C6.52995 9.86328 6.61458 9.82422 6.64062 9.82422C6.66667 9.82422 6.71224 9.8112 6.77734 9.78516L6.85547 9.6875ZM6.875 10.957C6.86198 10.931 6.84896 10.8919 6.83594 10.8398C6.82292 10.7878 6.78385 10.7487 6.71875 10.7227C6.67969 10.7357 6.64062 10.7552 6.60156 10.7812C6.5625 10.7943 6.52344 10.7878 6.48438 10.7617C6.52344 10.8529 6.54948 10.9049 6.5625 10.918C6.58854 10.918 6.6276 10.931 6.67969 10.957H6.875ZM6.79688 10.5664C6.79688 10.5013 6.78385 10.4492 6.75781 10.4102C6.74479 10.3581 6.70573 10.3255 6.64062 10.3125C6.51042 10.4167 6.45182 10.4753 6.46484 10.4883C6.49089 10.5013 6.4974 10.5208 6.48438 10.5469C6.41927 10.5469 6.35417 10.5534 6.28906 10.5664C6.22396 10.5664 6.21745 10.599 6.26953 10.6641C6.21745 10.6901 6.16536 10.7096 6.11328 10.7227C6.0612 10.7357 6.03516 10.7747 6.03516 10.8398C5.95703 10.918 5.92448 10.9701 5.9375 10.9961C5.96354 11.0091 5.95703 11.0286 5.91797 11.0547C5.86589 10.9635 5.82031 10.9245 5.78125 10.9375C5.75521 10.9505 5.72266 10.9375 5.68359 10.8984C5.69661 10.9505 5.71615 10.9961 5.74219 11.0352C5.78125 11.0612 5.8138 11.0872 5.83984 11.1133C5.73568 11.1523 5.65755 11.1458 5.60547 11.0938C5.51432 11.1589 5.46224 11.1914 5.44922 11.1914C5.44922 11.1914 5.44271 11.2044 5.42969 11.2305C5.54688 11.2695 5.61198 11.2826 5.625 11.2695C5.65104 11.2565 5.67057 11.2305 5.68359 11.1914C5.65755 11.3216 5.64453 11.3932 5.64453 11.4062C5.65755 11.4193 5.67708 11.4323 5.70312 11.4453C5.71615 11.3802 5.7487 11.3346 5.80078 11.3086C5.86589 11.2695 5.91797 11.2695 5.95703 11.3086C6.0612 11.2174 6.1263 11.1654 6.15234 11.1523C6.17839 11.1263 6.1849 11.0872 6.17188 11.0352C6.19792 11.0091 6.23698 10.9961 6.28906 10.9961C6.34115 10.9961 6.38021 10.9831 6.40625 10.957C6.44531 10.8789 6.47135 10.8138 6.48438 10.7617C6.51042 10.6966 6.55599 10.6771 6.62109 10.7031C6.63411 10.638 6.69271 10.5924 6.79688 10.5664ZM4.375 8.02734C4.41406 7.97526 4.42057 7.90365 4.39453 7.8125C4.38151 7.70833 4.36198 7.63021 4.33594 7.57812C4.375 7.4349 4.38151 7.29818 4.35547 7.16797C4.34245 7.02474 4.34896 6.88151 4.375 6.73828C4.29688 6.6862 4.21875 6.67969 4.14062 6.71875C4.08854 6.58854 4.08203 6.52344 4.12109 6.52344C4.17318 6.51042 4.21224 6.49089 4.23828 6.46484C4.29036 6.28255 4.29688 6.17188 4.25781 6.13281C4.34896 6.05469 4.38151 5.95052 4.35547 5.82031C4.32943 5.67708 4.29036 5.57292 4.23828 5.50781C4.1862 5.52083 4.13411 5.52734 4.08203 5.52734C4.02995 5.52734 3.99089 5.49479 3.96484 5.42969C4.02995 5.3776 4.07552 5.36458 4.10156 5.39062C4.1276 5.40365 4.15365 5.39062 4.17969 5.35156C4.15365 5.28646 4.1276 5.2474 4.10156 5.23438C4.07552 5.20833 4.04297 5.19531 4.00391 5.19531C3.91276 5.36458 3.80208 5.5013 3.67188 5.60547C3.54167 5.70964 3.45703 5.85286 3.41797 6.03516C3.35286 6.03516 3.3138 6.0612 3.30078 6.11328C3.28776 6.16536 3.26823 6.22396 3.24219 6.28906C3.17708 6.3151 3.125 6.34766 3.08594 6.38672C3.0599 6.42578 3.02734 6.46484 2.98828 6.50391C2.88411 6.7513 2.76042 6.95964 2.61719 7.12891C2.47396 7.29818 2.36979 7.50651 2.30469 7.75391C2.20052 7.97526 2.08333 8.15755 1.95312 8.30078C1.83594 8.43099 1.76432 8.58724 1.73828 8.76953C1.41276 9.1862 1.17188 9.66797 1.01562 10.2148C1.19792 10.2409 1.38672 10.2344 1.58203 10.1953C1.77734 10.1432 1.97917 10.1562 2.1875 10.2344C2.2526 10.1693 2.34375 10.1432 2.46094 10.1562C2.57812 10.1693 2.66927 10.2018 2.73438 10.2539C2.82552 10.2148 2.94271 10.2018 3.08594 10.2148C3.22917 10.2148 3.3724 10.2279 3.51562 10.2539C3.67188 10.2669 3.8151 10.2669 3.94531 10.2539C4.08854 10.2409 4.20573 10.1953 4.29688 10.1172C4.24479 10.013 4.24479 9.91536 4.29688 9.82422C4.36198 9.73307 4.36198 9.63542 4.29688 9.53125C4.25781 9.58333 4.21224 9.59635 4.16016 9.57031C4.10807 9.53125 4.0625 9.4987 4.02344 9.47266C4.1276 9.35547 4.17318 9.27734 4.16016 9.23828C4.14714 9.19922 4.15365 9.16016 4.17969 9.12109C4.27083 9.09505 4.32943 9.04297 4.35547 8.96484C4.38151 8.8737 4.38802 8.77604 4.375 8.67188C4.375 8.56771 4.36849 8.45703 4.35547 8.33984C4.34245 8.22266 4.34896 8.11849 4.375 8.02734ZM6.60156 9.98047C6.53646 10.0326 6.49089 10.0521 6.46484 10.0391C6.4388 10.026 6.41276 10.0456 6.38672 10.0977C6.28255 10.1237 6.21094 10.1432 6.17188 10.1562C6.13281 10.1562 6.13932 10.1823 6.19141 10.2344C6.07422 10.2344 6.0026 10.2409 5.97656 10.2539C5.9375 10.3841 5.89844 10.4557 5.85938 10.4688C5.82031 10.4688 5.80078 10.4883 5.80078 10.5273C5.69661 10.6185 5.61849 10.6771 5.56641 10.7031C5.52734 10.7292 5.48177 10.7487 5.42969 10.7617C5.39062 10.7747 5.35156 10.7943 5.3125 10.8203C5.27344 10.8464 5.26042 10.8854 5.27344 10.9375C5.13021 10.9635 5.03906 11.0221 5 11.1133C4.96094 11.1914 4.90234 11.263 4.82422 11.3281C4.78516 11.4453 4.76562 11.5299 4.76562 11.582C4.83073 11.556 4.88281 11.5104 4.92188 11.4453C4.97396 11.3802 5.04557 11.3607 5.13672 11.3867C5.17578 11.3216 5.20182 11.276 5.21484 11.25C5.24089 11.2109 5.28646 11.2174 5.35156 11.2695C5.33854 11.1654 5.36458 11.0872 5.42969 11.0352C5.50781 10.9831 5.57943 10.9635 5.64453 10.9766C5.7487 10.8073 5.8138 10.7161 5.83984 10.7031C5.98307 10.5729 6.06771 10.5078 6.09375 10.5078C6.13281 10.4297 6.17839 10.3906 6.23047 10.3906C6.28255 10.3906 6.29557 10.3516 6.26953 10.2734C6.32161 10.2344 6.36719 10.2279 6.40625 10.2539C6.44531 10.2799 6.47786 10.2734 6.50391 10.2344C6.46484 10.1562 6.47135 10.1172 6.52344 10.1172C6.57552 10.1042 6.60156 10.0586 6.60156 9.98047ZM6.17188 11.5625C6.14583 11.5365 6.1263 11.5039 6.11328 11.4648C6.10026 11.4258 6.06771 11.4062 6.01562 11.4062C6.05469 11.4974 6.10677 11.5495 6.17188 11.5625ZM5.99609 11.4453C5.89193 11.4974 5.8138 11.5299 5.76172 11.543C5.70964 11.556 5.65104 11.5951 5.58594 11.6602C5.63802 11.6341 5.67057 11.6341 5.68359 11.6602C5.70964 11.6732 5.75521 11.6797 5.82031 11.6797C5.84635 11.6276 5.87891 11.5951 5.91797 11.582C5.97005 11.556 5.99609 11.5104 5.99609 11.4453ZM5.56641 11.6602C5.56641 11.5951 5.54688 11.5495 5.50781 11.5234C5.48177 11.4974 5.44922 11.4909 5.41016 11.5039C5.37109 11.5039 5.33203 11.5234 5.29297 11.5625C5.25391 11.5885 5.22786 11.6211 5.21484 11.6602C5.30599 11.7513 5.35807 11.7904 5.37109 11.7773C5.39714 11.7513 5.41016 11.7318 5.41016 11.7188C5.42318 11.6927 5.4362 11.6732 5.44922 11.6602C5.47526 11.6471 5.51432 11.6471 5.56641 11.6602ZM6.60156 12.7148C6.57552 12.7669 6.52995 12.793 6.46484 12.793C6.41276 12.7799 6.38021 12.7995 6.36719 12.8516C6.41927 12.9167 6.48438 12.9167 6.5625 12.8516C6.64062 12.7865 6.65365 12.7409 6.60156 12.7148ZM6.89453 11.5625C6.90755 11.4583 6.90755 11.3672 6.89453 11.2891C6.89453 11.1979 6.88151 11.1328 6.85547 11.0938C6.7513 11.1849 6.65365 11.2435 6.5625 11.2695C6.48438 11.2826 6.42578 11.3151 6.38672 11.3672C6.23047 11.4062 6.15234 11.4388 6.15234 11.4648C6.26953 11.4779 6.34115 11.5495 6.36719 11.6797C6.27604 11.6536 6.24349 11.6732 6.26953 11.7383C6.29557 11.8034 6.28255 11.849 6.23047 11.875C6.16536 11.849 6.11979 11.862 6.09375 11.9141C6.06771 11.9661 6.02214 11.9922 5.95703 11.9922C5.98307 11.9531 5.97656 11.9206 5.9375 11.8945C5.89844 11.8555 5.88542 11.8034 5.89844 11.7383C5.84635 11.7643 5.82031 11.8099 5.82031 11.875C5.82031 11.9401 5.78776 11.9727 5.72266 11.9727C5.83984 12.1029 5.90495 12.1745 5.91797 12.1875C5.86589 12.3698 5.8138 12.4349 5.76172 12.3828C5.70964 12.3307 5.66406 12.3307 5.625 12.3828C5.72917 12.474 5.76823 12.5326 5.74219 12.5586C5.71615 12.5716 5.69661 12.5977 5.68359 12.6367C5.69661 12.5065 5.64453 12.4414 5.52734 12.4414C5.56641 12.5716 5.54688 12.6367 5.46875 12.6367C5.40365 12.6237 5.36458 12.6042 5.35156 12.5781C5.36458 12.5 5.35807 12.4544 5.33203 12.4414C5.31901 12.4154 5.29297 12.3958 5.25391 12.3828C5.16276 12.5521 5.09115 12.6628 5.03906 12.7148C4.98698 12.7539 4.92839 12.7995 4.86328 12.8516C4.92839 12.8516 4.99349 12.8451 5.05859 12.832C5.13672 12.819 5.20182 12.8255 5.25391 12.8516C5.1888 12.8906 5.1237 12.9232 5.05859 12.9492C4.99349 12.9622 4.94141 13.0013 4.90234 13.0664C4.78516 13.1055 4.71354 13.138 4.6875 13.1641C4.67448 13.1901 4.66146 13.2227 4.64844 13.2617C4.77865 13.2487 4.8763 13.2552 4.94141 13.2812C4.96745 13.151 5.01953 13.0859 5.09766 13.0859C5.1888 13.0729 5.27995 13.0339 5.37109 12.9688C5.37109 12.8776 5.39714 12.832 5.44922 12.832C5.5013 12.819 5.51432 12.793 5.48828 12.7539C5.56641 12.7409 5.64453 12.7279 5.72266 12.7148C5.8138 12.7018 5.89193 12.6758 5.95703 12.6367C6.00911 12.4284 6.0612 12.3372 6.11328 12.3633C6.17839 12.3763 6.21745 12.3438 6.23047 12.2656C6.16536 12.2396 6.10677 12.2461 6.05469 12.2852C6.01562 12.3242 5.98307 12.3307 5.95703 12.3047C6.00911 12.2266 6.04818 12.194 6.07422 12.207C6.10026 12.2201 6.14583 12.207 6.21094 12.168C6.34115 12.2201 6.39974 12.2331 6.38672 12.207C6.3737 12.181 6.38672 12.1615 6.42578 12.1484C6.56901 12.1615 6.6862 12.1159 6.77734 12.0117C6.86849 11.8945 6.90755 11.7448 6.89453 11.5625ZM5.82031 12.2461C5.79427 12.181 5.75521 12.168 5.70312 12.207C5.66406 12.2331 5.63151 12.2526 5.60547 12.2656C5.67057 12.2396 5.71615 12.2331 5.74219 12.2461C5.76823 12.2461 5.79427 12.2461 5.82031 12.2461ZM5.23438 11.7578C5.14323 11.7578 5.07812 11.7839 5.03906 11.8359C5 11.875 4.95443 11.9076 4.90234 11.9336C5.05859 11.9336 5.13672 11.9206 5.13672 11.8945C5.14974 11.8555 5.18229 11.8099 5.23438 11.7578ZM5.64453 11.7969C5.5013 11.8099 5.38411 11.875 5.29297 11.9922C5.21484 12.0964 5.11719 12.1615 5 12.1875C4.97396 12.2917 4.94792 12.3568 4.92188 12.3828C4.90885 12.3958 4.8763 12.3958 4.82422 12.3828C4.91536 12.4089 4.98698 12.3958 5.03906 12.3438C5.10417 12.2786 5.16927 12.2461 5.23438 12.2461C5.23438 12.181 5.25391 12.1354 5.29297 12.1094C5.34505 12.0703 5.39714 12.0378 5.44922 12.0117C5.5013 11.9727 5.54688 11.9401 5.58594 11.9141C5.625 11.888 5.64453 11.849 5.64453 11.7969ZM6.48438 13.1445C6.51042 13.0924 6.4974 13.0534 6.44531 13.0273C6.39323 12.9883 6.34115 12.9557 6.28906 12.9297C6.19792 12.9688 6.11979 13.0143 6.05469 13.0664C5.98958 13.1185 5.90495 13.1576 5.80078 13.1836C5.8138 13.2487 5.82031 13.2943 5.82031 13.3203C5.83333 13.3333 5.85286 13.3724 5.87891 13.4375C5.94401 13.2812 6.0026 13.1901 6.05469 13.1641C6.11979 13.125 6.17839 13.1185 6.23047 13.1445C6.3737 13.1055 6.43229 13.099 6.40625 13.125C6.39323 13.151 6.41927 13.1576 6.48438 13.1445ZM6.99219 14.3555C6.88802 14.2643 6.8099 14.1797 6.75781 14.1016C6.70573 14.0234 6.71875 13.9518 6.79688 13.8867C6.73177 13.8607 6.70573 13.8151 6.71875 13.75C6.73177 13.6719 6.72526 13.5938 6.69922 13.5156C6.60807 13.5286 6.54297 13.5482 6.50391 13.5742C6.46484 13.5872 6.4388 13.5742 6.42578 13.5352C6.46484 13.418 6.48438 13.3464 6.48438 13.3203C6.4974 13.2943 6.48438 13.2878 6.44531 13.3008C6.39323 13.444 6.38672 13.5352 6.42578 13.5742C6.36068 13.6003 6.32161 13.5872 6.30859 13.5352C6.29557 13.4831 6.25651 13.4766 6.19141 13.5156C6.23047 13.5417 6.26302 13.5612 6.28906 13.5742C6.32812 13.5742 6.36068 13.5938 6.38672 13.6328C6.33464 13.6589 6.26953 13.6523 6.19141 13.6133C6.1263 13.5612 6.0612 13.5547 5.99609 13.5938C6.02214 13.75 6.02214 13.8411 5.99609 13.8672C5.98307 13.8932 5.97005 13.9258 5.95703 13.9648C6.0612 13.9779 6.11979 13.9909 6.13281 14.0039C6.15885 14.0039 6.17188 14.0234 6.17188 14.0625C6.28906 13.9974 6.3737 13.9583 6.42578 13.9453C6.47786 13.9323 6.53646 13.9193 6.60156 13.9062C6.4974 13.9844 6.4388 14.0365 6.42578 14.0625C6.41276 14.0755 6.39974 14.0951 6.38672 14.1211C6.3737 14.1341 6.36068 14.1471 6.34766 14.1602C6.33464 14.1732 6.30859 14.1667 6.26953 14.1406C6.29557 14.2057 6.30208 14.2513 6.28906 14.2773C6.27604 14.3034 6.25651 14.3424 6.23047 14.3945C6.26953 14.3945 6.32161 14.388 6.38672 14.375C6.45182 14.362 6.51693 14.3555 6.58203 14.3555C6.64714 14.3424 6.69922 14.349 6.73828 14.375C6.77734 14.388 6.79036 14.4206 6.77734 14.4727C6.86849 14.4466 6.92708 14.4336 6.95312 14.4336C6.97917 14.4206 6.99219 14.3945 6.99219 14.3555ZM3.76953 10.7031C3.52214 10.638 3.33984 10.612 3.22266 10.625C3.10547 10.638 2.95573 10.638 2.77344 10.625C2.70833 10.612 2.6237 10.5924 2.51953 10.5664C2.42839 10.5404 2.34375 10.5664 2.26562 10.6445C2.48698 10.6576 2.7474 10.6836 3.04688 10.7227C3.34635 10.7617 3.58724 10.7552 3.76953 10.7031ZM5.82031 13.4375C5.76823 13.3724 5.72266 13.3398 5.68359 13.3398C5.65755 13.3268 5.63151 13.3333 5.60547 13.3594C5.63151 13.4635 5.68359 13.5352 5.76172 13.5742L5.82031 13.4375ZM5.48828 13.3203C5.39714 13.2161 5.33854 13.1771 5.3125 13.2031C5.29948 13.2161 5.26693 13.2161 5.21484 13.2031C5.30599 13.2552 5.35156 13.2943 5.35156 13.3203C5.36458 13.3464 5.39062 13.3529 5.42969 13.3398L5.48828 13.3203ZM5.83984 13.8867C5.77474 13.8737 5.71615 13.8672 5.66406 13.8672C5.625 13.8672 5.60547 13.8867 5.60547 13.9258C5.65755 13.8737 5.73568 13.8607 5.83984 13.8867ZM5.99609 14.375C5.98307 14.3099 5.98958 14.2708 6.01562 14.2578C6.04167 14.2318 6.03516 14.1992 5.99609 14.1602C5.97005 14.2253 5.9375 14.2578 5.89844 14.2578C5.8724 14.2578 5.83333 14.2773 5.78125 14.3164C5.78125 14.3685 5.80729 14.3945 5.85938 14.3945C5.92448 14.3945 5.97005 14.388 5.99609 14.375ZM5.85938 14.1406C5.79427 14.0755 5.7487 14.056 5.72266 14.082C5.69661 14.1081 5.65104 14.1146 5.58594 14.1016C5.70312 14.1276 5.79427 14.1406 5.85938 14.1406ZM5.39062 13.9648C5.27344 13.8867 5.20833 13.8281 5.19531 13.7891C5.29948 13.7109 5.3776 13.6458 5.42969 13.5938C5.49479 13.5286 5.47526 13.5156 5.37109 13.5547C5.35807 13.6198 5.33203 13.6654 5.29297 13.6914C5.25391 13.7174 5.20833 13.737 5.15625 13.75C5.10417 13.763 5.05208 13.7826 5 13.8086C4.94792 13.8216 4.91536 13.8542 4.90234 13.9062C5.11068 13.8802 5.19531 13.9128 5.15625 14.0039C5.19531 14.0039 5.22786 13.9974 5.25391 13.9844C5.27995 13.9583 5.32552 13.9518 5.39062 13.9648ZM2.10938 10.5859C2.03125 10.5859 1.95964 10.5924 1.89453 10.6055C1.82943 10.6055 1.76432 10.6185 1.69922 10.6445C1.54297 10.6315 1.4388 10.5924 1.38672 10.5273C1.47786 10.5924 1.59505 10.6445 1.73828 10.6836C1.89453 10.7096 2.01823 10.6771 2.10938 10.5859ZM5.52734 14.2773C5.47526 14.2643 5.4362 14.2578 5.41016 14.2578C5.38411 14.2578 5.35156 14.2708 5.3125 14.2969C5.14323 14.2839 5.04557 14.2448 5.01953 14.1797C5.00651 14.1146 4.98047 14.043 4.94141 13.9648C4.91536 14.0169 4.8763 14.056 4.82422 14.082C4.78516 14.0951 4.73958 14.1146 4.6875 14.1406C4.71354 14.2057 4.6875 14.2643 4.60938 14.3164C4.54427 14.3555 4.4987 14.4076 4.47266 14.4727C4.58984 14.5117 4.71354 14.5247 4.84375 14.5117C4.98698 14.4987 5.09766 14.4792 5.17578 14.4531C5.1888 14.401 5.24089 14.375 5.33203 14.375C5.42318 14.375 5.48828 14.3424 5.52734 14.2773ZM6.62109 3.88672C6.59505 3.9388 6.54948 3.95833 6.48438 3.94531C6.43229 3.93229 6.38021 3.91927 6.32812 3.90625C6.35417 3.84115 6.39974 3.8151 6.46484 3.82812C6.54297 3.84115 6.59505 3.86068 6.62109 3.88672ZM6.44531 4.04297C6.40625 4.10807 6.34766 4.13411 6.26953 4.12109C6.19141 4.09505 6.11979 4.06901 6.05469 4.04297C6.11979 3.97786 6.1849 3.95833 6.25 3.98438C6.3151 4.01042 6.38021 4.02995 6.44531 4.04297ZM6.67969 4.25781C6.65365 4.32292 6.59505 4.35547 6.50391 4.35547C6.41276 4.34245 6.36719 4.38802 6.36719 4.49219C6.27604 4.41406 6.28906 4.34896 6.40625 4.29688C6.52344 4.24479 6.61458 4.23177 6.67969 4.25781ZM6.26953 4.19922C6.21745 4.2513 6.16536 4.28385 6.11328 4.29688C6.07422 4.29688 6.03516 4.32943 5.99609 4.39453C5.86589 4.4987 5.78776 4.5638 5.76172 4.58984C5.7487 4.61589 5.72266 4.63542 5.68359 4.64844C5.61849 4.50521 5.65755 4.42057 5.80078 4.39453C5.8138 4.36849 5.82682 4.34896 5.83984 4.33594C5.86589 4.32292 5.88542 4.3099 5.89844 4.29688C5.92448 4.27083 5.95052 4.2513 5.97656 4.23828C6.0026 4.22526 6.02865 4.23828 6.05469 4.27734C6.13281 4.1862 6.20443 4.16016 6.26953 4.19922ZM5.50781 4.70703C5.53385 4.75911 5.50781 4.81771 5.42969 4.88281C5.36458 4.94792 5.30599 4.94792 5.25391 4.88281C5.29297 4.85677 5.33854 4.83073 5.39062 4.80469C5.44271 4.77865 5.48177 4.74609 5.50781 4.70703ZM5.89844 6.03516C5.85938 6.03516 5.83333 6.0612 5.82031 6.11328C5.80729 6.15234 5.76823 6.15885 5.70312 6.13281C5.72917 6.05469 5.76172 6.01562 5.80078 6.01562C5.85286 6.0026 5.87891 5.97005 5.87891 5.91797L5.89844 6.03516ZM5.82031 7.26562C5.79427 7.29167 5.76823 7.31771 5.74219 7.34375C5.72917 7.36979 5.70312 7.39583 5.66406 7.42188C5.67708 7.36979 5.6901 7.32422 5.70312 7.28516C5.72917 7.24609 5.76823 7.23958 5.82031 7.26562ZM6.09375 6.95312C6.02865 7.03125 5.98958 7.08333 5.97656 7.10938C5.96354 7.13542 5.94401 7.15495 5.91797 7.16797C5.82682 7.10286 5.77474 7.10286 5.76172 7.16797C5.7487 7.22005 5.71615 7.21354 5.66406 7.14844C5.61198 7.17448 5.59245 7.22005 5.60547 7.28516C5.63151 7.35026 5.60547 7.39583 5.52734 7.42188C5.5013 7.40885 5.46875 7.42188 5.42969 7.46094C5.40365 7.5 5.38411 7.53906 5.37109 7.57812C5.35807 7.47396 5.39714 7.36328 5.48828 7.24609C5.57943 7.12891 5.68359 7.0638 5.80078 7.05078C5.93099 6.97266 5.99609 6.93359 5.99609 6.93359C5.99609 6.92057 6.00911 6.91406 6.03516 6.91406L6.09375 6.95312ZM6.42578 8.65234C6.24349 8.60026 6.13932 8.6263 6.11328 8.73047C6.15234 8.58724 6.19141 8.51562 6.23047 8.51562C6.26953 8.51562 6.29557 8.5026 6.30859 8.47656L6.42578 8.65234ZM5.23438 7.85156C5.15625 7.79948 5.09766 7.78646 5.05859 7.8125C5.03255 7.83854 5.00651 7.85156 4.98047 7.85156C4.96745 7.76042 4.98698 7.70833 5.03906 7.69531C5.09115 7.66927 5.14974 7.66927 5.21484 7.69531L5.23438 7.85156ZM6.23047 8.90625C6.16536 8.89323 6.11328 8.88672 6.07422 8.88672C6.04818 8.8737 6.02214 8.8737 5.99609 8.88672C6.0612 8.92578 6.10026 8.94531 6.11328 8.94531C6.1263 8.93229 6.16536 8.91927 6.23047 8.90625ZM5.03906 7.98828C4.98698 8.09245 4.92839 8.14453 4.86328 8.14453C4.8112 8.14453 4.77214 8.14453 4.74609 8.14453C4.78516 8.11849 4.8112 8.08594 4.82422 8.04688C4.85026 8.00781 4.8763 7.96875 4.90234 7.92969L5.03906 7.98828ZM6.07422 9.10156C6.07422 9.20573 6.04167 9.27734 5.97656 9.31641C5.96354 9.2513 5.96354 9.21224 5.97656 9.19922C6.0026 9.17318 5.99609 9.14062 5.95703 9.10156H6.07422ZM6.40625 9.25781C6.38021 9.29688 6.34115 9.32943 6.28906 9.35547C6.23698 9.36849 6.19141 9.38802 6.15234 9.41406C6.11328 9.49219 6.09375 9.5638 6.09375 9.62891C6.02865 9.5638 5.98307 9.5638 5.95703 9.62891C5.94401 9.68099 5.92448 9.72005 5.89844 9.74609C5.83333 9.75911 5.78776 9.7526 5.76172 9.72656C5.73568 9.6875 5.70312 9.65495 5.66406 9.62891C5.65104 9.74609 5.61849 9.80469 5.56641 9.80469C5.52734 9.79167 5.48177 9.78516 5.42969 9.78516C5.42969 9.72005 5.44922 9.66797 5.48828 9.62891C5.52734 9.57682 5.56641 9.53125 5.60547 9.49219C5.65755 9.51823 5.69661 9.55078 5.72266 9.58984C5.76172 9.61589 5.80729 9.64193 5.85938 9.66797C5.91146 9.64193 5.91797 9.60286 5.87891 9.55078C5.85286 9.4987 5.86589 9.45964 5.91797 9.43359C5.97005 9.45964 6.01562 9.45312 6.05469 9.41406C6.09375 9.375 6.13281 9.33594 6.17188 9.29688C6.21094 9.25781 6.24349 9.23177 6.26953 9.21875C6.30859 9.19271 6.35417 9.20573 6.40625 9.25781ZM5.58594 9.25781C5.54688 9.23177 5.50781 9.23177 5.46875 9.25781C5.44271 9.27083 5.41016 9.28385 5.37109 9.29688C5.46224 9.21875 5.51432 9.17969 5.52734 9.17969C5.55339 9.17969 5.57292 9.20573 5.58594 9.25781ZM5.27344 9.51172C5.26042 9.57682 5.22786 9.61589 5.17578 9.62891C5.1237 9.62891 5.08464 9.64193 5.05859 9.66797C5.05859 9.5638 5.13021 9.51172 5.27344 9.51172ZM6.77734 11.7188L6.48438 11.7969C6.58854 11.7188 6.64062 11.6862 6.64062 11.6992C6.65365 11.7122 6.67318 11.7188 6.69922 11.7188H6.77734ZM6.48438 11.9922C6.48438 12.0443 6.47135 12.0703 6.44531 12.0703C6.41927 12.0703 6.39323 12.0703 6.36719 12.0703C6.35417 12.0573 6.33464 12.0508 6.30859 12.0508C6.28255 12.0508 6.26953 12.0703 6.26953 12.1094C6.23047 12.0573 6.19141 12.0443 6.15234 12.0703C6.11328 12.0833 6.08724 12.0573 6.07422 11.9922C6.23047 12.0182 6.32812 12.0247 6.36719 12.0117C6.40625 11.9857 6.44531 11.9792 6.48438 11.9922ZM6.5625 13.7891C6.47135 13.8932 6.34766 13.9453 6.19141 13.9453C6.19141 13.8802 6.19141 13.8346 6.19141 13.8086C6.19141 13.7826 6.19792 13.7565 6.21094 13.7305C6.36719 13.7044 6.45182 13.7109 6.46484 13.75C6.47786 13.776 6.51042 13.7891 6.5625 13.7891Z" fill="#2F71A1"/>
<path d="M15.2638 9.92045L14.3604 10.1761C14.3036 10.0256 14.2198 9.87926 14.109 9.73722C14.0011 9.59233 13.8533 9.47301 13.6658 9.37926C13.4783 9.28551 13.2383 9.23864 12.9457 9.23864C12.5451 9.23864 12.2113 9.33097 11.9442 9.51562C11.68 9.69744 11.5479 9.92898 11.5479 10.2102C11.5479 10.4602 11.6388 10.6577 11.8207 10.8026C12.0025 10.9474 12.2866 11.0682 12.6729 11.1648L13.6445 11.4034C14.2298 11.5455 14.6658 11.7628 14.9528 12.0554C15.2397 12.3452 15.3832 12.7187 15.3832 13.1761C15.3832 13.5511 15.2752 13.8864 15.0593 14.1818C14.8462 14.4773 14.5479 14.7102 14.1644 14.8807C13.7809 15.0511 13.3349 15.1364 12.8263 15.1364C12.1587 15.1364 11.6062 14.9915 11.1687 14.7017C10.7312 14.4119 10.4542 13.9886 10.3377 13.4318L11.2923 13.1932C11.3832 13.5455 11.555 13.8097 11.8079 13.9858C12.0636 14.1619 12.3974 14.25 12.8093 14.25C13.2781 14.25 13.6502 14.1506 13.9258 13.9517C14.2042 13.75 14.3434 13.5085 14.3434 13.2273C14.3434 13 14.2638 12.8097 14.1048 12.6562C13.9457 12.5 13.7013 12.3835 13.3718 12.3068L12.2809 12.0511C11.6815 11.9091 11.2411 11.6889 10.9599 11.3906C10.6815 11.0895 10.5423 10.7131 10.5423 10.2614C10.5423 9.89205 10.646 9.56534 10.8533 9.28125C11.0636 8.99716 11.3491 8.77415 11.7099 8.61222C12.0735 8.45028 12.4854 8.36932 12.9457 8.36932C13.5934 8.36932 14.1019 8.51136 14.4712 8.79545C14.8434 9.07955 15.1076 9.45455 15.2638 9.92045ZM15.6655 7.21023V6.27273H22.2109V7.21023H19.4666V15H18.4098V7.21023H15.6655ZM25.5007 15.1364C24.87 15.1364 24.326 14.9972 23.8686 14.7188C23.4141 14.4375 23.0632 14.0455 22.8161 13.5426C22.5717 13.0369 22.4496 12.4489 22.4496 11.7784C22.4496 11.108 22.5717 10.517 22.8161 10.0057C23.0632 9.49148 23.407 9.09091 23.8473 8.80398C24.2905 8.5142 24.8075 8.36932 25.3984 8.36932C25.7393 8.36932 26.076 8.42614 26.4084 8.53977C26.7408 8.65341 27.0433 8.83807 27.3161 9.09375C27.5888 9.34659 27.8061 9.68182 27.968 10.0994C28.13 10.517 28.2109 11.0312 28.2109 11.642V12.0682H23.1655V11.1989H27.1882C27.1882 10.8295 27.1143 10.5 26.9666 10.2102C26.8217 9.92045 26.6143 9.69176 26.3445 9.52415C26.0774 9.35653 25.7621 9.27273 25.3984 9.27273C24.9979 9.27273 24.6513 9.37216 24.3587 9.57102C24.0689 9.76705 23.8459 10.0227 23.6896 10.3381C23.5334 10.6534 23.4553 10.9915 23.4553 11.3523V11.9318C23.4553 12.4261 23.5405 12.8452 23.7109 13.1889C23.8842 13.5298 24.1243 13.7898 24.4311 13.9688C24.7379 14.1449 25.0945 14.233 25.5007 14.233C25.7649 14.233 26.0036 14.196 26.2166 14.1222C26.4325 14.0455 26.6186 13.9318 26.7749 13.7812C26.9311 13.6278 27.0518 13.4375 27.1371 13.2102L28.1087 13.483C28.0064 13.8125 27.8345 14.1023 27.593 14.3523C27.3516 14.5994 27.0533 14.7926 26.6982 14.9318C26.343 15.0682 25.9439 15.1364 25.5007 15.1364ZM32.3999 15.1364C31.7862 15.1364 31.2578 14.9915 30.8146 14.7017C30.3714 14.4119 30.0305 14.0128 29.7919 13.5043C29.5533 12.9957 29.4339 12.4148 29.4339 11.7614C29.4339 11.0966 29.5561 10.5099 29.8004 10.0014C30.0476 9.49006 30.3913 9.09091 30.8317 8.80398C31.2749 8.5142 31.7919 8.36932 32.3828 8.36932C32.843 8.36932 33.2578 8.45455 33.6271 8.625C33.9964 8.79545 34.299 9.03409 34.5348 9.34091C34.7706 9.64773 34.9169 10.0057 34.9737 10.4148H33.968C33.8913 10.1165 33.7209 9.85227 33.4567 9.62216C33.1953 9.3892 32.843 9.27273 32.3999 9.27273C32.0078 9.27273 31.6641 9.375 31.3686 9.57955C31.076 9.78125 30.8473 10.0668 30.6825 10.4361C30.5206 10.8026 30.4396 11.233 30.4396 11.7273C30.4396 12.233 30.5192 12.6733 30.6783 13.0483C30.8402 13.4233 31.0675 13.7145 31.3601 13.9219C31.6555 14.1293 32.0021 14.233 32.3999 14.233C32.6612 14.233 32.8984 14.1875 33.1115 14.0966C33.3246 14.0057 33.505 13.875 33.6527 13.7045C33.8004 13.5341 33.9055 13.3295 33.968 13.0909H34.9737C34.9169 13.4773 34.7763 13.8253 34.5518 14.1349C34.3303 14.4418 34.0362 14.6861 33.6697 14.8679C33.3061 15.0469 32.8828 15.1364 32.3999 15.1364ZM37.4496 11.0625V15H36.4439V6.27273H37.4496V9.47727H37.5348C37.6882 9.1392 37.9183 8.87074 38.2251 8.67188C38.5348 8.47017 38.9467 8.36932 39.4609 8.36932C39.907 8.36932 40.2976 8.45881 40.6328 8.63778C40.968 8.81392 41.228 9.08523 41.4126 9.4517C41.6001 9.81534 41.6939 10.2784 41.6939 10.8409V15H40.6882V10.9091C40.6882 10.3892 40.5533 9.98722 40.2834 9.70312C40.0163 9.41619 39.6456 9.27273 39.1712 9.27273C38.8416 9.27273 38.5462 9.34233 38.2848 9.48153C38.0263 9.62074 37.8217 9.82386 37.6712 10.0909C37.5234 10.358 37.4496 10.6818 37.4496 11.0625Z" fill="#FAFAFC"/>
</svg>
